<svg version="1.1" id="Layer_1" xmlns="http://www.w3.org/2000/svg" xmlns:xlink="http://www.w3.org/1999/xlink" x="0px" y="0px"
	 width="100%" viewBox="0 0 500 500" enable-background="new 0 0 500 500" xml:space="preserve">
<path fill="#FFFFFF" opacity="1.000000" stroke="none" 
	d="
M288.000000,501.000000 
	C192.000015,501.000000 96.500046,501.000000 1.000051,501.000000 
	C1.000034,334.333405 1.000034,167.666794 1.000017,1.000141 
	C167.666565,1.000094 334.333130,1.000094 500.999756,1.000047 
	C500.999847,167.666519 500.999847,334.333038 500.999939,500.999786 
	C430.166656,501.000000 359.333344,501.000000 288.000000,501.000000 
M389.415558,315.512634 
	C390.609924,315.335449 391.804291,315.158264 393.662262,314.985748 
	C394.104553,314.984406 394.546814,314.983063 395.786102,314.990906 
	C402.688873,314.271240 407.665192,310.450897 411.923523,305.261353 
	C414.050140,302.669708 416.585175,300.413208 418.998962,298.829102 
	C418.697205,302.540771 418.395447,306.252441 417.530304,310.396362 
	C416.690582,313.899445 418.959412,315.181702 421.618835,314.865784 
	C425.648010,314.387115 429.558990,312.986206 433.571106,312.257111 
	C435.285248,311.945648 437.179810,312.096680 438.900238,312.466400 
	C441.973114,313.126740 445.027802,314.973816 447.998260,314.795441 
	C455.889038,314.321625 459.999237,310.108124 459.906403,302.994293 
	C458.272522,301.552917 456.638641,300.111572 454.402527,298.138947 
	C454.683746,295.439392 454.964722,291.808258 455.455719,288.205719 
	C456.890900,277.675720 458.483521,267.166901 459.868866,256.630585 
	C460.732910,250.059296 459.270660,248.746094 452.784210,250.402863 
	C448.947205,251.382904 445.249084,252.906494 440.775452,254.086136 
	C440.058990,254.042786 439.342529,253.999435 438.407776,253.137589 
	C437.261810,252.055466 435.851562,249.870178 435.013000,250.071091 
	C429.766144,251.328186 424.513489,252.797684 419.542389,254.868256 
	C417.111328,255.880859 416.933258,258.711639 419.795258,259.675354 
	C423.422546,260.896759 423.652557,263.394318 423.336670,266.298096 
	C422.585510,273.203613 421.693756,280.093842 420.085358,286.997284 
	C418.796478,286.993164 417.507568,286.989075 416.104553,286.122559 
	C415.728424,272.960236 407.495636,265.966827 394.569763,267.829620 
	C380.438049,269.866241 371.311127,282.532288 372.161591,298.138794 
	C371.772125,299.381195 371.382660,300.623596 370.214142,302.006531 
	C365.570984,302.119904 366.115570,298.153290 365.095032,295.452026 
	C363.550568,291.364044 362.074524,287.250214 361.316498,283.033386 
	C365.883331,280.569824 369.272461,277.077484 370.428467,271.898346 
	C370.614960,271.062744 369.608978,269.960999 369.268402,268.184174 
	C371.460419,259.035187 367.508484,251.960495 358.401215,251.222321 
	C347.826630,250.365234 337.134033,250.950195 326.492706,250.957947 
	C325.692627,250.958527 324.828003,251.219315 324.104218,251.581009 
	C321.134338,253.065094 320.354980,254.772568 322.683136,257.836487 
	C324.204376,259.838501 325.593781,262.766968 325.372040,265.123352 
	C324.437744,275.053070 322.934174,284.932098 321.513123,294.811584 
	C320.991425,298.438599 320.339935,301.990356 316.050964,303.565918 
	C315.030823,303.940704 314.742645,306.308105 314.039337,308.578369 
	C315.075378,310.224823 315.754639,312.795654 317.209473,313.357147 
	C323.389404,315.742310 329.815247,315.180176 336.074463,313.356659 
	C339.217957,312.440887 340.463867,310.044830 339.882629,306.081726 
	C338.594177,303.721863 337.305725,301.361969 336.770447,298.838470 
	C337.190552,297.178833 337.384247,295.414368 338.091431,293.887695 
	C338.871185,292.204346 340.122253,290.739288 341.168030,289.179138 
	C342.685181,290.262146 344.889984,291.026245 345.571899,292.496613 
	C346.867889,295.291107 347.429901,298.461639 348.055481,301.525238 
	C350.728333,314.614349 361.190918,318.793060 372.320435,311.404480 
	C373.633759,310.532623 376.183289,310.968048 377.964447,311.478668 
	C381.060333,312.366180 384.003754,313.785400 387.674194,314.987244 
	C388.116516,314.985199 388.558838,314.983154 389.415558,315.512634 
M272.219482,237.782547 
	C273.145386,233.011459 274.082001,228.242416 274.993622,223.468613 
	C275.668793,219.932938 277.729279,220.340637 279.443817,222.306503 
	C281.387695,224.535385 282.751007,227.267670 284.390686,229.765366 
	C288.939667,236.694824 293.180969,243.864365 298.245392,250.395004 
	C299.841949,252.453781 303.998047,254.134811 306.359589,253.535080 
	C308.658813,252.951141 311.264832,249.456635 311.810944,246.838501 
	C313.661896,237.965393 314.541962,228.894882 316.020813,219.937424 
	C317.217773,212.687195 317.043213,204.966812 323.008453,199.201096 
	C323.923370,198.316803 323.564240,196.114365 323.749054,193.824814 
	C323.444946,192.914032 323.401123,191.738892 322.791351,191.138565 
	C320.243317,188.630066 308.439728,188.628922 306.204071,191.427887 
	C305.383789,192.454819 305.905609,194.845245 306.328339,196.481140 
	C306.664978,197.783920 308.529633,198.949478 308.433655,200.065735 
	C307.657166,209.099716 306.577606,218.107620 305.590454,227.123489 
	C303.485596,225.949661 302.489868,224.675964 301.620911,223.320999 
	C295.690002,214.073151 289.395416,205.028763 283.999176,195.477463 
	C279.845398,188.125320 273.834198,188.468781 266.208008,190.623734 
	C263.096191,191.503052 262.488922,193.787445 264.764374,196.835922 
	C266.275818,198.860886 267.725922,201.762939 267.500336,204.108597 
	C266.545410,214.037766 265.016479,223.914993 263.559753,233.790909 
	C263.028534,237.392319 262.499176,241.016861 258.110443,242.523376 
	C257.093964,242.872284 256.777924,245.261719 256.051178,247.543076 
	C255.590408,251.238953 257.910583,252.594437 260.950897,252.898972 
	C263.707092,253.175034 266.515564,253.073318 269.293243,252.955521 
	C273.124451,252.793076 275.579926,251.205780 275.010010,246.083649 
	C274.452362,244.718750 273.907959,243.348251 273.333252,241.990570 
	C272.774078,240.669601 272.183807,239.361816 272.219482,237.782547 
M223.673447,220.888321 
	C226.024338,219.888092 228.330139,218.758026 230.737991,217.921844 
	C233.495544,216.964203 235.710129,215.821991 234.523193,211.570938 
	C235.204407,208.920837 234.603699,207.410583 231.439789,207.702789 
	C229.365540,207.894379 227.259232,207.738968 224.772751,207.738968 
	C224.965500,204.930511 225.302200,202.789429 225.179749,200.674911 
	C225.115799,199.570465 224.517609,197.914871 223.690430,197.536606 
	C219.941147,195.822113 213.660446,198.968018 212.657730,203.041611 
	C212.017853,205.641083 211.213791,207.579865 208.168152,208.091721 
	C206.696625,208.339005 205.383926,209.531403 203.939148,210.329086 
	C200.497894,206.771286 196.239029,206.147461 191.902374,207.510437 
	C187.740143,208.818619 183.804474,210.847626 179.760574,212.563538 
	C177.900940,206.250626 177.761536,206.045944 171.566788,208.101852 
	C167.620148,209.411667 164.184631,210.856064 160.078201,207.786133 
	C158.131149,206.330521 154.617081,206.452835 151.875229,206.665070 
	C137.255157,207.796631 126.940079,218.778397 126.198341,233.659622 
	C126.117233,235.286804 125.945244,236.909439 125.815414,238.534195 
	C122.323067,231.983109 123.588913,223.587845 115.128662,219.747696 
	C116.864204,219.038620 117.643471,218.748566 118.399475,218.407013 
	C125.963097,214.989731 129.510559,208.620270 128.257019,200.726624 
	C127.193039,194.026749 123.102409,190.340530 114.283905,189.839279 
	C104.999130,189.311523 95.658890,189.684204 86.345039,189.816223 
	C84.749847,189.838821 82.586945,190.149078 81.730438,191.187592 
	C80.775368,192.345657 80.279312,195.655472 80.848106,196.012177 
	C84.834015,198.511932 84.375282,202.260727 83.908455,205.794769 
	C82.537224,216.175400 81.003410,226.540298 79.194885,236.852005 
	C78.878708,238.654755 77.257675,240.741028 75.646523,241.689667 
	C72.916252,243.297302 72.266670,245.109741 72.750854,248.205750 
	C74.334023,249.797394 75.779243,252.554199 77.526352,252.761063 
	C82.658409,253.368652 87.920441,253.156647 93.111885,252.886841 
	C96.589088,252.706131 98.540390,250.684814 98.051224,246.304123 
	C97.891403,245.201935 98.131134,243.517410 97.508293,243.090073 
	C92.699173,239.790543 93.998291,235.400085 95.720703,230.883591 
	C100.392937,226.516739 102.883530,227.173126 105.238121,233.119553 
	C105.813339,234.572220 107.229424,235.691925 108.610947,237.382095 
	C108.674751,237.915649 108.738556,238.449219 108.123764,239.144058 
	C106.235519,245.475220 111.319389,252.859177 117.735832,252.983078 
	C124.873505,253.120926 131.805786,250.956924 139.215012,253.733124 
	C146.691467,256.534485 153.884857,252.304047 160.572754,249.003403 
	C166.131973,254.584305 168.788406,255.247421 174.606949,252.098969 
	C176.885574,250.865982 179.633743,249.400604 177.799088,245.052094 
	C178.508682,240.031815 179.218277,235.011536 180.637085,229.882217 
	C181.163086,229.129959 181.816956,228.436554 182.194580,227.615997 
	C184.894028,221.750366 185.785995,221.311478 192.087173,223.851318 
	C191.851608,225.829636 191.623596,227.808899 191.379105,229.786118 
	C190.587051,236.191330 189.788940,242.595795 188.459030,249.450882 
	C189.712067,250.959045 190.997101,253.760620 192.212112,253.730576 
	C195.727097,253.643677 199.195953,252.318436 202.719452,251.681366 
	C204.458481,251.366959 206.730957,250.767410 207.986771,251.546509 
	C215.543106,256.234467 222.746872,254.241684 229.573822,250.406021 
	C231.356949,249.404205 231.851517,246.108948 233.021164,243.060562 
	C233.144516,238.309250 230.305542,240.285294 228.028610,240.827316 
	C221.756042,242.320541 219.913727,240.506607 221.613037,233.927750 
	C221.938446,233.625458 222.263855,233.323166 222.589279,233.020889 
	C222.122681,232.674927 221.656082,232.328964 221.125305,231.259827 
	C221.432861,229.841919 221.740402,228.424026 222.621536,226.927383 
	C222.945099,226.625107 223.268661,226.322845 223.592224,226.020569 
	C223.128036,225.674576 222.663864,225.328568 222.134415,224.300659 
	C222.409866,223.199966 222.685318,222.099289 223.673447,220.888321 
M345.311401,210.854324 
	C347.062317,206.099258 349.387848,201.458221 350.362122,196.549011 
	C351.011566,193.276627 349.181427,189.841827 345.204041,189.109634 
	C341.295685,188.390121 338.366882,190.127991 336.807007,193.799957 
	C335.297791,197.352707 335.314819,200.851944 339.037018,202.963882 
	C342.150848,204.730652 341.628662,206.809845 340.321594,209.180054 
	C339.523743,210.626938 338.347656,211.873856 337.621643,213.348541 
	C337.178131,214.249420 337.266113,215.411972 337.115387,216.457001 
	C338.329102,216.436783 339.929626,216.898315 340.677429,216.297867 
	C342.325378,214.974640 343.543152,213.115738 345.311401,210.854324 
z"/>
<path fill="#065EE1" opacity="1.000000" stroke="none" 
	d="
M108.802353,238.982773 
	C108.738556,238.449219 108.674751,237.915649 108.456100,236.760193 
	C106.940636,232.396286 105.580017,228.654251 104.019180,224.572968 
	C101.036636,222.962845 98.152824,220.640945 95.721420,225.327942 
	C95.359871,227.440536 95.190727,229.222198 95.021584,231.003860 
	C93.998291,235.400085 92.699173,239.790543 97.508293,243.090073 
	C98.131134,243.517410 97.891403,245.201935 97.658089,246.777313 
	C89.364487,250.398590 81.370293,249.867584 73.338493,247.860001 
	C72.266670,245.109741 72.916252,243.297302 75.646523,241.689667 
	C77.257675,240.741028 78.878708,238.654755 79.194885,236.852005 
	C81.003410,226.540298 82.537224,216.175400 83.908455,205.794769 
	C84.375282,202.260727 84.834015,198.511932 80.848106,196.012177 
	C80.279312,195.655472 80.775368,192.345657 81.730438,191.187592 
	C82.586945,190.149078 84.749847,189.838821 86.345039,189.816223 
	C95.658890,189.684204 104.999130,189.311523 114.283905,189.839279 
	C123.102409,190.340530 127.193039,194.026749 128.257019,200.726624 
	C129.510559,208.620270 125.963097,214.989731 118.399475,218.407013 
	C117.643471,218.748566 116.864204,219.038620 115.128662,219.747696 
	C123.588913,223.587845 122.323067,231.983109 125.815414,238.534195 
	C125.945244,236.909439 126.117233,235.286804 126.198341,233.659622 
	C126.940079,218.778397 137.255157,207.796631 151.875229,206.665070 
	C154.617081,206.452835 158.131149,206.330521 160.078201,207.786133 
	C164.184631,210.856064 167.620148,209.411667 171.566788,208.101852 
	C177.761536,206.045944 177.900940,206.250626 179.760574,212.563538 
	C183.804474,210.847626 187.740143,208.818619 191.902374,207.510437 
	C196.239029,206.147461 200.497894,206.771286 203.939148,210.329086 
	C205.383926,209.531403 206.696625,208.339005 208.168152,208.091721 
	C211.213791,207.579865 212.017853,205.641083 212.657730,203.041611 
	C213.660446,198.968018 219.941147,195.822113 223.690430,197.536606 
	C224.517609,197.914871 225.115799,199.570465 225.179749,200.674911 
	C225.302200,202.789429 224.965500,204.930511 224.772751,207.738968 
	C227.259232,207.738968 229.365540,207.894379 231.439789,207.702789 
	C234.603699,207.410583 235.204407,208.920837 234.285706,212.215332 
	C232.676239,213.194351 231.312943,213.772980 229.930756,213.822372 
	C223.145523,214.064758 223.143753,214.015045 222.960785,220.998611 
	C222.685318,222.099289 222.409866,223.199966 222.058563,224.969406 
	C222.004440,226.094147 222.026199,226.550125 222.047943,227.006119 
	C221.740402,228.424026 221.432861,229.841919 221.049408,231.949127 
	C220.994736,233.094055 221.015945,233.549713 221.037140,234.005356 
	C219.913727,240.506607 221.756042,242.320541 228.028610,240.827316 
	C230.305542,240.285294 233.144516,238.309250 232.676025,243.636429 
	C222.678986,251.614624 212.865738,251.892258 206.406891,244.969269 
	C200.998291,248.057556 195.812607,252.033447 188.993179,249.000549 
	C189.788940,242.595795 190.587051,236.191330 191.379105,229.786118 
	C191.623596,227.808899 191.851608,225.829636 192.141525,223.018646 
	C191.355927,220.449677 190.546875,217.279831 189.669891,217.260925 
	C187.520508,217.214569 184.311188,218.013885 183.389526,219.573090 
	C181.569504,222.652054 181.009125,226.475601 179.927872,229.991257 
	C179.218277,235.011536 178.508682,240.031815 177.455719,245.673676 
	C172.948746,247.828049 168.785126,249.360855 163.913742,251.154236 
	C163.602173,247.191223 163.420044,244.874786 163.168976,241.681366 
	C154.381165,249.102615 145.127151,252.030716 134.306458,248.564362 
	C132.874664,247.509567 131.665863,246.733383 130.443512,245.948471 
	C128.997665,246.960297 127.676430,247.884918 125.934464,248.813568 
	C114.284714,250.154282 112.014091,248.818008 108.802353,238.982773 
M164.707428,238.402924 
	C165.345444,234.619415 165.983475,230.835907 166.906906,226.386139 
	C167.088226,223.811890 167.269531,221.237625 167.450851,218.663376 
	C165.151733,225.086197 160.814743,229.000153 154.959824,231.107941 
	C151.447830,232.372284 147.620911,232.910461 143.885544,233.357407 
	C141.037643,233.698135 140.243256,234.540588 141.981873,237.751190 
	C143.482010,241.845200 146.812073,242.755569 150.450195,241.840195 
	C152.923920,241.217804 155.267578,239.690384 157.394135,238.180054 
	C159.756805,236.502090 161.552704,236.300308 163.027649,239.768112 
	C163.093658,240.460251 163.159653,241.152390 163.225662,241.844543 
	C163.427628,241.850037 163.629608,241.855530 163.831573,241.861008 
	C163.985458,240.925751 164.139328,239.990479 164.707428,238.402924 
M113.724556,203.327194 
	C113.082214,202.012848 112.719864,199.860626 111.746956,199.535507 
	C108.327026,198.392654 104.715721,197.645340 101.128319,197.359604 
	C100.547890,197.313370 99.719780,200.376694 98.559570,202.694870 
	C98.148659,206.371201 97.737740,210.047516 97.332184,213.675888 
	C108.002846,216.044815 113.714211,212.570175 113.724556,203.327194 
M143.233307,218.931503 
	C142.490356,221.401398 141.747421,223.871292 141.004486,226.341202 
	C141.379959,226.833359 141.755432,227.325500 142.130920,227.817657 
	C144.783203,226.680679 148.223038,226.205383 149.880554,224.232605 
	C151.784042,221.967056 152.266006,218.410873 152.969360,215.325027 
	C153.091080,214.791016 150.715332,212.965408 150.393311,213.167877 
	C148.008774,214.667297 145.852066,216.529007 143.233307,218.931503 
M208.757523,213.895782 
	C207.655777,214.012283 206.554031,214.128769 206.229263,214.163116 
	C205.354233,221.470383 204.422272,228.317719 203.806137,235.193375 
	C203.684021,236.555954 204.774277,238.027176 205.305450,239.448288 
	C205.776169,239.236420 206.246887,239.024567 206.717590,238.812714 
	C207.046082,237.037384 207.490250,235.274475 207.682251,233.484512 
	C208.375900,227.017471 208.984711,220.541336 208.757523,213.895782 
z"/>
<path fill="#065EE1" opacity="1.000000" stroke="none" 
	d="
M314.117767,307.758972 
	C314.742645,306.308105 315.030823,303.940704 316.050964,303.565918 
	C320.339935,301.990356 320.991425,298.438599 321.513123,294.811584 
	C322.934174,284.932098 324.437744,275.053070 325.372040,265.123352 
	C325.593781,262.766968 324.204376,259.838501 322.683136,257.836487 
	C320.354980,254.772568 321.134338,253.065094 324.104218,251.581009 
	C324.828003,251.219315 325.692627,250.958527 326.492706,250.957947 
	C337.134033,250.950195 347.826630,250.365234 358.401215,251.222321 
	C367.508484,251.960495 371.460419,259.035187 369.121948,268.935974 
	C367.318298,275.671570 362.701660,278.469696 356.685913,280.571259 
	C358.257721,281.613922 359.413544,282.380646 360.569366,283.147369 
	C362.074524,287.250214 363.550568,291.364044 365.095032,295.452026 
	C366.115570,298.153290 365.570984,302.119904 370.910217,302.084656 
	C374.582001,305.278687 371.318298,306.746490 369.477417,308.799347 
	C364.384125,308.930237 359.693848,308.958344 354.812256,308.700684 
	C353.158600,305.332977 351.457458,302.337921 350.296936,299.146271 
	C348.975006,295.510773 348.135437,291.699921 347.039062,287.596863 
	C345.647675,286.141754 344.420746,284.384827 342.932037,284.124359 
	C340.661804,283.727203 336.945801,281.940765 337.007935,287.420593 
	C336.605896,291.550354 336.311584,295.276215 336.017273,299.002075 
	C337.305725,301.361969 338.594177,303.721863 339.563904,306.625336 
	C334.950653,311.235291 319.559174,311.596680 314.117767,307.758972 
M340.092499,263.869446 
	C339.700134,267.548828 339.307739,271.228210 338.920929,274.855377 
	C350.297760,276.623108 355.247711,273.422516 355.061005,264.262146 
	C353.056305,258.813599 350.300507,257.378265 344.061829,257.924225 
	C340.559601,258.230743 340.347046,260.440430 340.092499,263.869446 
z"/>
<path fill="#065EE1" opacity="1.000000" stroke="none" 
	d="
M256.139557,246.712204 
	C256.777924,245.261719 257.093964,242.872284 258.110443,242.523376 
	C262.499176,241.016861 263.028534,237.392319 263.559753,233.790909 
	C265.016479,223.914993 266.545410,214.037766 267.500336,204.108597 
	C267.725922,201.762939 266.275818,198.860886 264.764374,196.835922 
	C262.488922,193.787445 263.096191,191.503052 266.208008,190.623734 
	C273.834198,188.468781 279.845398,188.125320 283.999176,195.477463 
	C289.395416,205.028763 295.690002,214.073151 301.620911,223.320999 
	C302.489868,224.675964 303.485596,225.949661 305.590454,227.123489 
	C306.577606,218.107620 307.657166,209.099716 308.433655,200.065735 
	C308.529633,198.949478 306.664978,197.783920 306.328339,196.481140 
	C305.905609,194.845245 305.383789,192.454819 306.204071,191.427887 
	C308.439728,188.628922 320.243317,188.630066 322.791351,191.138565 
	C323.401123,191.738892 323.444946,192.914032 323.492249,194.389252 
	C317.879395,197.704163 316.520691,202.611542 315.807343,208.081833 
	C314.303009,219.617935 312.749268,231.155975 310.759552,242.613968 
	C310.316589,245.164719 308.250153,249.075562 306.465973,249.351456 
	C304.028809,249.728317 300.863403,247.595291 298.546875,245.832825 
	C296.799622,244.503494 295.869934,242.083008 294.618713,240.121201 
	C288.288605,230.196198 281.972382,220.262375 275.651276,210.331650 
	C275.221680,210.388870 274.792084,210.446106 274.362488,210.503342 
	C273.444061,219.684967 272.525635,228.866608 271.607208,238.048233 
	C272.183807,239.361816 272.774078,240.669601 273.333252,241.990570 
	C273.907959,243.348251 274.452362,244.718750 274.623169,246.640152 
	C268.127106,249.909790 262.067963,250.752701 256.139557,246.712204 
z"/>
<path fill="#055DE0" opacity="1.000000" stroke="none" 
	d="
M372.836395,297.990509 
	C371.311127,282.532288 380.438049,269.866241 394.569763,267.829620 
	C407.495636,265.966827 415.728424,272.960236 416.063110,286.950439 
	C415.473480,294.453094 412.085968,299.755402 407.540283,304.792725 
	C398.449493,311.950317 389.129089,313.318054 378.950378,307.407288 
	C376.797485,304.084625 374.816956,301.037567 372.836395,297.990509 
M401.000244,279.271790 
	C399.477051,277.532288 397.902527,274.346466 396.442932,274.398285 
	C394.347687,274.472717 392.180847,276.737701 390.357849,278.409241 
	C389.510345,279.186310 389.400146,280.767487 388.452667,282.573120 
	C388.113586,287.786865 387.266296,293.040649 387.672333,298.195709 
	C387.847748,300.422668 390.408752,303.896393 392.258575,304.156677 
	C394.139526,304.421387 397.350647,301.883728 398.452972,299.775299 
	C401.665253,293.631073 402.721924,286.925110 401.000244,279.271790 
z"/>
<path fill="#065EE1" opacity="1.000000" stroke="none" 
	d="
M418.093658,309.964111 
	C418.395447,306.252441 418.697205,302.540771 419.129761,298.056732 
	C419.793335,293.852997 420.326050,290.421631 420.858826,286.990265 
	C421.693756,280.093842 422.585510,273.203613 423.336670,266.298096 
	C423.652557,263.394318 423.422546,260.896759 419.795258,259.675354 
	C416.933258,258.711639 417.111328,255.880859 419.542389,254.868256 
	C424.513489,252.797684 429.766144,251.328186 435.013000,250.071091 
	C435.851562,249.870178 437.261810,252.055466 438.335602,253.953613 
	C436.262299,269.675018 434.261139,284.580383 432.313751,299.085419 
	C435.506317,300.508698 437.772430,301.518951 440.033295,302.686401 
	C440.024689,303.053436 440.029572,303.263062 439.840363,303.390747 
	C439.638000,303.308960 439.274689,303.550903 438.818024,303.447235 
	C438.038879,303.868408 437.716400,304.393280 437.128784,305.093079 
	C431.245270,309.384644 425.448730,312.789062 418.093658,309.964111 
z"/>
<path fill="#065EE1" opacity="1.000000" stroke="none" 
	d="
M440.042725,303.472504 
	C440.029572,303.263062 440.024689,303.053436 440.130371,302.273621 
	C441.871582,289.722992 443.647644,277.757812 444.999115,265.744843 
	C445.198029,263.976715 443.871643,261.038422 442.403351,260.277832 
	C438.720062,258.369812 439.310822,256.584961 441.488495,254.185669 
	C445.249084,252.906494 448.947205,251.382904 452.784210,250.402863 
	C459.270660,248.746094 460.732910,250.059296 459.868866,256.630585 
	C458.483521,267.166901 456.890900,277.675720 455.455719,288.205719 
	C454.964722,291.808258 454.683746,295.439392 454.402527,298.138947 
	C456.638641,300.111572 458.272522,301.552917 459.618530,303.581909 
	C455.570801,306.306396 452.031067,309.119171 448.002563,310.431000 
	C440.922699,312.736389 439.149872,310.889465 440.042725,303.472504 
z"/>
<path fill="#EAEEF4" opacity="1.000000" stroke="none" 
	d="
M271.913330,237.915390 
	C272.525635,228.866608 273.444061,219.684967 274.362488,210.503342 
	C274.792084,210.446106 275.221680,210.388870 275.651276,210.331650 
	C281.972382,220.262375 288.288605,230.196198 294.618713,240.121201 
	C295.869934,242.083008 296.799622,244.503494 298.546875,245.832825 
	C300.863403,247.595291 304.028809,249.728317 306.465973,249.351456 
	C308.250153,249.075562 310.316589,245.164719 310.759552,242.613968 
	C312.749268,231.155975 314.303009,219.617935 315.807343,208.081833 
	C316.520691,202.611542 317.879395,197.704163 323.514893,194.737625 
	C323.564240,196.114365 323.923370,198.316803 323.008453,199.201096 
	C317.043213,204.966812 317.217773,212.687195 316.020813,219.937424 
	C314.541962,228.894882 313.661896,237.965393 311.810944,246.838501 
	C311.264832,249.456635 308.658813,252.951141 306.359589,253.535080 
	C303.998047,254.134811 299.841949,252.453781 298.245392,250.395004 
	C293.180969,243.864365 288.939667,236.694824 284.390686,229.765366 
	C282.751007,227.267670 281.387695,224.535385 279.443817,222.306503 
	C277.729279,220.340637 275.668793,219.932938 274.993622,223.468613 
	C274.082001,228.242416 273.145386,233.011459 271.913330,237.915390 
z"/>
<path fill="#F3F6FA" opacity="1.000000" stroke="none" 
	d="
M441.131958,254.135895 
	C439.310822,256.584961 438.720062,258.369812 442.403351,260.277832 
	C443.871643,261.038422 445.198029,263.976715 444.999115,265.744843 
	C443.647644,277.757812 441.871582,289.722992 440.135590,302.116394 
	C437.772430,301.518951 435.506317,300.508698 432.313751,299.085419 
	C434.261139,284.580383 436.262299,269.675018 438.444763,254.362869 
	C439.342529,253.999435 440.058990,254.042786 441.131958,254.135895 
z"/>
<path fill="#EEF2F7" opacity="1.000000" stroke="none" 
	d="
M108.463058,239.063416 
	C112.014091,248.818008 114.284714,250.154282 126.449059,248.866058 
	C129.766068,248.890671 132.147766,248.866821 134.529449,248.842972 
	C145.127151,252.030716 154.381165,249.102615 163.168976,241.681366 
	C163.420044,244.874786 163.602173,247.191223 163.913742,251.154236 
	C168.785126,249.360855 172.948746,247.828049 177.378784,246.084747 
	C179.633743,249.400604 176.885574,250.865982 174.606949,252.098969 
	C168.788406,255.247421 166.131973,254.584305 160.572754,249.003403 
	C153.884857,252.304047 146.691467,256.534485 139.215012,253.733124 
	C131.805786,250.956924 124.873505,253.120926 117.735832,252.983078 
	C111.319389,252.859177 106.235519,245.475220 108.463058,239.063416 
z"/>
<path fill="#0B61E1" opacity="1.000000" stroke="none" 
	d="
M345.123962,211.164886 
	C343.543152,213.115738 342.325378,214.974640 340.677429,216.297867 
	C339.929626,216.898315 338.329102,216.436783 337.115356,216.457001 
	C337.266113,215.411972 337.178131,214.249420 337.621643,213.348541 
	C338.347656,211.873856 339.523743,210.626938 340.321594,209.180054 
	C341.628662,206.809845 342.150848,204.730652 339.037018,202.963882 
	C335.314819,200.851944 335.297791,197.352707 336.807007,193.799957 
	C338.366882,190.127991 341.295685,188.390121 345.204041,189.109634 
	C349.181427,189.841827 351.011566,193.276627 350.362122,196.549011 
	C349.387848,201.458221 347.062317,206.099258 345.123962,211.164886 
z"/>
<path fill="#F3F6FA" opacity="1.000000" stroke="none" 
	d="
M372.498993,298.064636 
	C374.816956,301.037567 376.797485,304.084625 378.951324,307.773193 
	C381.753448,310.603668 384.382263,312.792694 387.011108,314.981689 
	C384.003754,313.785400 381.060333,312.366180 377.964447,311.478668 
	C376.183289,310.968048 373.633759,310.532623 372.320435,311.404480 
	C361.190918,318.793060 350.728333,314.614349 348.055481,301.525238 
	C347.429901,298.461639 346.867889,295.291107 345.571899,292.496613 
	C344.889984,291.026245 342.685181,290.262146 341.168030,289.179138 
	C340.122253,290.739288 338.871185,292.204346 338.091431,293.887695 
	C337.384247,295.414368 337.190552,297.178833 336.393860,298.920288 
	C336.311584,295.276215 336.605896,291.550354 337.370117,287.363800 
	C340.922089,287.257172 344.004181,287.611206 347.086243,287.965271 
	C348.135437,291.699921 348.975006,295.510773 350.296936,299.146271 
	C351.457458,302.337921 353.158600,305.332977 354.854156,309.071655 
	C359.329956,314.704834 367.749786,314.117523 369.880432,308.696564 
	C371.318298,306.746490 374.582001,305.278687 371.299744,302.014404 
	C371.382660,300.623596 371.772125,299.381195 372.498993,298.064636 
z"/>
<path fill="#EAEEF4" opacity="1.000000" stroke="none" 
	d="
M439.840363,303.390747 
	C439.149872,310.889465 440.922699,312.736389 448.002563,310.431000 
	C452.031067,309.119171 455.570801,306.306396 459.611206,303.970032 
	C459.999237,310.108124 455.889038,314.321625 447.998260,314.795441 
	C445.027802,314.973816 441.973114,313.126740 438.900238,312.466400 
	C437.179810,312.096680 435.285248,311.945648 433.571106,312.257111 
	C429.558990,312.986206 425.648010,314.387115 421.618835,314.865784 
	C418.959412,315.181702 416.690582,313.899445 417.811981,310.180237 
	C425.448730,312.789062 431.245270,309.384644 437.515747,304.982117 
	C438.536804,304.314423 438.905762,303.932678 439.274689,303.550903 
	C439.274689,303.550903 439.638000,303.308960 439.840363,303.390747 
z"/>
<path fill="#EAEEF4" opacity="1.000000" stroke="none" 
	d="
M188.726105,249.225708 
	C195.812607,252.033447 200.998291,248.057556 206.406891,244.969269 
	C212.865738,251.892258 222.678986,251.614624 232.634384,244.039642 
	C231.851517,246.108948 231.356949,249.404205 229.573822,250.406021 
	C222.746872,254.241684 215.543106,256.234467 207.986771,251.546509 
	C206.730957,250.767410 204.458481,251.366959 202.719452,251.681366 
	C199.195953,252.318436 195.727097,253.643677 192.212112,253.730576 
	C190.997101,253.760620 189.712067,250.959045 188.726105,249.225708 
z"/>
<path fill="#F3F6FA" opacity="1.000000" stroke="none" 
	d="
M420.472076,286.993774 
	C420.326050,290.421631 419.793335,293.852997 419.098022,297.644745 
	C416.585175,300.413208 414.050140,302.669708 411.923523,305.261353 
	C407.665192,310.450897 402.688873,314.271240 395.455688,314.631348 
	C396.072632,313.799988 397.050232,313.380035 397.962006,312.847382 
	C401.707794,310.658905 407.036804,310.370758 407.864349,304.654541 
	C412.085968,299.755402 415.473480,294.453094 416.120178,287.381653 
	C417.507568,286.989075 418.796478,286.993164 420.472076,286.993774 
z"/>
<path fill="#E7EBF2" opacity="1.000000" stroke="none" 
	d="
M314.078552,308.168671 
	C319.559174,311.596680 334.950653,311.235291 339.567566,306.974609 
	C340.463867,310.044830 339.217957,312.440887 336.074463,313.356659 
	C329.815247,315.180176 323.389404,315.742310 317.209473,313.357147 
	C315.754639,312.795654 315.075378,310.224823 314.078552,308.168671 
z"/>
<path fill="#E7EBF2" opacity="1.000000" stroke="none" 
	d="
M73.044678,248.032867 
	C81.370293,249.867584 89.364487,250.398590 97.611313,247.080307 
	C98.540390,250.684814 96.589088,252.706131 93.111885,252.886841 
	C87.920441,253.156647 82.658409,253.368652 77.526352,252.761063 
	C75.779243,252.554199 74.334023,249.797394 73.044678,248.032867 
z"/>
<path fill="#EAEEF4" opacity="1.000000" stroke="none" 
	d="
M407.540283,304.792725 
	C407.036804,310.370758 401.707794,310.658905 397.962006,312.847382 
	C397.050232,313.380035 396.072632,313.799988 395.057190,314.626709 
	C394.546814,314.983063 394.104553,314.984406 393.119385,314.725037 
	C391.384705,314.636566 390.192932,314.808807 389.001160,314.981079 
	C388.558838,314.983154 388.116516,314.985199 387.342651,314.984467 
	C384.382263,312.792694 381.753448,310.603668 379.123657,308.048767 
	C389.129089,313.318054 398.449493,311.950317 407.540283,304.792725 
z"/>
<path fill="#E7EBF2" opacity="1.000000" stroke="none" 
	d="
M256.095367,247.127640 
	C262.067963,250.752701 268.127106,249.909790 274.578430,247.016602 
	C275.579926,251.205780 273.124451,252.793076 269.293243,252.955521 
	C266.515564,253.073318 263.707092,253.175034 260.950897,252.898972 
	C257.910583,252.594437 255.590408,251.238953 256.095367,247.127640 
z"/>
<path fill="#E7EBF2" opacity="1.000000" stroke="none" 
	d="
M180.282471,229.936737 
	C181.009125,226.475601 181.569504,222.652054 183.389526,219.573090 
	C184.311188,218.013885 187.520508,217.214569 189.669891,217.260925 
	C190.546875,217.279831 191.355927,220.449677 192.086212,222.595566 
	C185.785995,221.311478 184.894028,221.750366 182.194580,227.615997 
	C181.816956,228.436554 181.163086,229.129959 180.282471,229.936737 
z"/>
<path fill="#EEF2F7" opacity="1.000000" stroke="none" 
	d="
M104.219406,224.912231 
	C105.580017,228.654251 106.940636,232.396286 108.280075,236.551514 
	C107.229424,235.691925 105.813339,234.572220 105.238121,233.119553 
	C102.883530,227.173126 100.392937,226.516739 95.371140,230.943726 
	C95.190727,229.222198 95.359871,227.440536 96.181351,225.327911 
	C99.295593,224.968704 101.757500,224.940475 104.219406,224.912231 
z"/>
<path fill="#E7EBF2" opacity="1.000000" stroke="none" 
	d="
M360.942932,283.090393 
	C359.413544,282.380646 358.257721,281.613922 356.685913,280.571259 
	C362.701660,278.469696 367.318298,275.671570 369.064819,269.335052 
	C369.608978,269.960999 370.614960,271.062744 370.428467,271.898346 
	C369.272461,277.077484 365.883331,280.569824 360.942932,283.090393 
z"/>
<path fill="#EEF2F7" opacity="1.000000" stroke="none" 
	d="
M223.317108,220.943466 
	C223.143753,214.015045 223.145523,214.064758 229.930756,213.822372 
	C231.312943,213.772980 232.676239,213.194351 234.352844,212.578201 
	C235.710129,215.821991 233.495544,216.964203 230.737991,217.921844 
	C228.330139,218.758026 226.024338,219.888092 223.317108,220.943466 
z"/>
<path fill="#F3F6FA" opacity="1.000000" stroke="none" 
	d="
M389.208374,315.246857 
	C390.192932,314.808807 391.384705,314.636566 392.787567,314.722687 
	C391.804291,315.158264 390.609924,315.335449 389.208374,315.246857 
z"/>
<path fill="#EEF2F7" opacity="1.000000" stroke="none" 
	d="
M222.334747,226.966751 
	C222.026199,226.550125 222.004440,226.094147 222.091187,225.310364 
	C222.663864,225.328568 223.128036,225.674576 223.592224,226.020569 
	C223.268661,226.322845 222.945099,226.625107 222.334747,226.966751 
z"/>
<path fill="#EEF2F7" opacity="1.000000" stroke="none" 
	d="
M221.325089,233.966553 
	C221.015945,233.549713 220.994736,233.094055 221.081512,232.310699 
	C221.656082,232.328964 222.122681,232.674927 222.589279,233.020889 
	C222.263855,233.323166 221.938446,233.625458 221.325089,233.966553 
z"/>
<path fill="#F9FAFC" opacity="1.000000" stroke="none" 
	d="
M113.645287,204.035294 
	C113.714211,212.570175 108.002846,216.044815 97.332184,213.675888 
	C97.737740,210.047516 98.148659,206.371201 99.154312,202.304642 
	C105.038429,198.314682 109.342728,201.169312 113.645287,204.035294 
z"/>
<path fill="#F7F9FC" opacity="1.000000" stroke="none" 
	d="
M166.621490,227.052399 
	C165.983475,230.835907 165.345444,234.619415 164.208740,238.704987 
	C163.515533,239.001923 163.321045,238.996796 163.126541,238.991653 
	C161.552704,236.300308 159.756805,236.502090 157.394135,238.180054 
	C155.267578,239.690384 152.923920,241.217804 150.450195,241.840195 
	C146.812073,242.755569 143.482010,241.845200 142.376434,237.363785 
	C150.609863,235.782410 158.312149,234.324265 163.879944,227.812042 
	C164.390930,227.214386 165.688934,227.289627 166.621490,227.052399 
z"/>
<path fill="#EEF2F7" opacity="1.000000" stroke="none" 
	d="
M143.428528,218.604187 
	C145.852066,216.529007 148.008774,214.667297 150.393311,213.167877 
	C150.715332,212.965408 153.091080,214.791016 152.969360,215.325027 
	C152.266006,218.410873 151.784042,221.967056 149.880554,224.232605 
	C148.223038,226.205383 144.783203,226.680679 142.130920,227.817657 
	C141.755432,227.325500 141.379959,226.833359 141.004486,226.341202 
	C141.747421,223.871292 142.490356,221.401398 143.428528,218.604187 
z"/>
<path fill="#EAEEF4" opacity="1.000000" stroke="none" 
	d="
M209.191528,213.982208 
	C208.984711,220.541336 208.375900,227.017471 207.682251,233.484512 
	C207.490250,235.274475 207.046082,237.037384 206.717590,238.812714 
	C206.246887,239.024567 205.776169,239.236420 205.305450,239.448288 
	C204.774277,238.027176 203.684021,236.555954 203.806137,235.193375 
	C204.422272,228.317719 205.354233,221.470383 206.229263,214.163116 
	C206.554031,214.128769 207.655777,214.012283 209.191528,213.982208 
z"/>
<path fill="#DEE5F1" opacity="1.000000" stroke="none" 
	d="
M166.764191,226.719269 
	C165.688934,227.289627 164.390930,227.214386 163.879944,227.812042 
	C158.312149,234.324265 150.609863,235.782410 142.359314,236.994873 
	C140.243256,234.540588 141.037643,233.698135 143.885544,233.357407 
	C147.620911,232.910461 151.447830,232.372284 154.959824,231.107941 
	C160.814743,229.000153 165.151733,225.086197 167.450851,218.663376 
	C167.269531,221.237625 167.088226,223.811890 166.764191,226.719269 
z"/>
<path fill="#E7EBF2" opacity="1.000000" stroke="none" 
	d="
M113.684921,203.681244 
	C109.342728,201.169312 105.038429,198.314682 99.377609,201.958527 
	C99.719780,200.376694 100.547890,197.313370 101.128319,197.359604 
	C104.715721,197.645340 108.327026,198.392654 111.746956,199.535507 
	C112.719864,199.860626 113.082214,202.012848 113.684921,203.681244 
z"/>
<path fill="#E7EBF2" opacity="1.000000" stroke="none" 
	d="
M104.019180,224.572968 
	C101.757500,224.940475 99.295593,224.968704 96.373756,224.996979 
	C98.152824,220.640945 101.036636,222.962845 104.019180,224.572968 
z"/>
<path fill="#EAEEF4" opacity="1.000000" stroke="none" 
	d="
M134.306458,248.564362 
	C132.147766,248.866821 129.766068,248.890671 126.869781,248.862030 
	C127.676430,247.884918 128.997665,246.960297 130.443512,245.948471 
	C131.665863,246.733383 132.874664,247.509567 134.306458,248.564362 
z"/>
<path fill="#EAEEF4" opacity="1.000000" stroke="none" 
	d="
M163.077087,239.379883 
	C163.321045,238.996796 163.515533,239.001923 164.001617,239.031128 
	C164.139328,239.990479 163.985458,240.925751 163.831573,241.861008 
	C163.629608,241.855530 163.427628,241.850037 163.225662,241.844543 
	C163.159653,241.152390 163.093658,240.460251 163.077087,239.379883 
z"/>
<path fill="#F9FAFC" opacity="1.000000" stroke="none" 
	d="
M354.960571,265.005829 
	C355.247711,273.422516 350.297760,276.623108 338.920929,274.855377 
	C339.307739,271.228210 339.700134,267.548828 340.570435,263.435913 
	C345.607269,260.563324 349.835175,260.482971 353.536224,264.662079 
	C353.801788,264.961945 354.476227,264.899719 354.960571,265.005829 
z"/>
<path fill="#EAEEF4" opacity="1.000000" stroke="none" 
	d="
M355.010803,264.633972 
	C354.476227,264.899719 353.801788,264.961945 353.536224,264.662079 
	C349.835175,260.482971 345.607269,260.563324 340.682587,263.015808 
	C340.347046,260.440430 340.559601,258.230743 344.061829,257.924225 
	C350.300507,257.378265 353.056305,258.813599 355.010803,264.633972 
z"/>
<path fill="#EAEEF4" opacity="1.000000" stroke="none" 
	d="
M369.477417,308.799347 
	C367.749786,314.117523 359.329956,314.704834 355.045471,309.357422 
	C359.693848,308.958344 364.384125,308.930237 369.477417,308.799347 
z"/>
<path fill="#DEE5F1" opacity="1.000000" stroke="none" 
	d="
M347.039062,287.596863 
	C344.004181,287.611206 340.922089,287.257172 337.477844,286.959900 
	C336.945801,281.940765 340.661804,283.727203 342.932037,284.124359 
	C344.420746,284.384827 345.647675,286.141754 347.039062,287.596863 
z"/>
<path fill="#F7F9FC" opacity="1.000000" stroke="none" 
	d="
M400.939423,280.008514 
	C402.721924,286.925110 401.665253,293.631073 398.452972,299.775299 
	C397.350647,301.883728 394.139526,304.421387 392.258575,304.156677 
	C390.408752,303.896393 387.847748,300.422668 387.672333,298.195709 
	C387.266296,293.040649 388.113586,287.786865 389.050446,282.230225 
	C392.826965,277.745453 396.668945,277.589508 400.939423,280.008514 
z"/>
<path fill="#E7EBF2" opacity="1.000000" stroke="none" 
	d="
M400.969849,279.640137 
	C396.668945,277.589508 392.826965,277.745453 389.302002,281.935791 
	C389.400146,280.767487 389.510345,279.186310 390.357849,278.409241 
	C392.180847,276.737701 394.347687,274.472717 396.442932,274.398285 
	C397.902527,274.346466 399.477051,277.532288 400.969849,279.640137 
z"/>
<path fill="#F3F6FA" opacity="1.000000" stroke="none" 
	d="
M438.818024,303.447235 
	C438.905762,303.932678 438.536804,304.314423 437.780884,304.807159 
	C437.716400,304.393280 438.038879,303.868408 438.818024,303.447235 
z"/>
</svg>